<?xml version="1.0" encoding="utf-8"?>
<svg xmlns="http://www.w3.org/2000/svg" fill="none" height="50" viewBox="0 0 43 50" width="43">
  <path d="M19.96 7.5835C19.96 8.57938 19.7638 9.56551 19.3827 10.4856C19.0016 11.4057 18.443 12.2417 17.7388 12.9458C17.0346 13.65 16.1986 14.2086 15.2785 14.5897C14.3585 14.9708 13.3723 15.167 12.3765 15.167C10.3652 15.167 8.43631 14.368 7.01412 12.9458C5.59194 11.5237 4.79297 9.59477 4.79297 7.5835C4.79297 5.57223 5.59194 3.64334 7.01412 2.22116C8.43631 0.798974 10.3652 0 12.3765 0C14.3877 0 16.3166 0.798974 17.7388 2.22116C19.161 3.64334 19.96 5.57223 19.96 7.5835ZM16.6084 7.5835C16.6084 7.02775 16.499 6.47744 16.2863 5.964C16.0736 5.45055 15.7619 4.98403 15.3689 4.59105C14.9759 4.19808 14.5094 3.88635 13.996 3.67368C13.4825 3.461 12.9322 3.35154 12.3765 3.35154C11.2541 3.35154 10.1777 3.7974 9.38402 4.59105C8.59037 5.3847 8.14451 6.46111 8.14451 7.5835C8.14451 8.70589 8.59037 9.7823 9.38402 10.576C10.1777 11.3696 11.2541 11.8155 12.3765 11.8155C12.9322 11.8155 13.4825 11.706 13.996 11.4933C14.5094 11.2807 14.9759 10.9689 15.3689 10.576C15.7619 10.183 16.0736 9.71645 16.2863 9.203C16.499 8.68956 16.6084 8.13925 16.6084 7.5835Z" fill="#FE7957"/>
  <path d="M38.8525 12.1836C38.8525 13.8431 38.1933 15.4347 37.0198 16.6082C35.8463 17.7816 34.2547 18.4409 32.5952 18.4409C30.9357 18.4409 29.3441 17.7816 28.1706 16.6082C26.9971 15.4347 26.3379 13.8431 26.3379 12.1836C26.3379 10.524 26.9971 8.93247 28.1706 7.75899C29.3441 6.58552 30.9357 5.92627 32.5952 5.92627C34.2547 5.92627 35.8463 6.58552 37.0198 7.75899C38.1933 8.93247 38.8525 10.524 38.8525 12.1836ZM35.5028 12.1817C35.5028 11.8001 35.4277 11.4223 35.2816 11.0697C35.1356 10.7172 34.9216 10.3969 34.6517 10.127C34.3819 9.85721 34.0616 9.64318 33.709 9.49715C33.3565 9.35112 32.9786 9.27596 32.5971 9.27596C31.8264 9.27596 31.0873 9.5821 30.5424 10.127C29.9974 10.672 29.6913 11.4111 29.6913 12.1817C29.6913 12.9524 29.9974 13.6915 30.5424 14.2364C31.0873 14.7814 31.8264 15.0875 32.5971 15.0875C32.9786 15.0875 33.3565 15.0123 33.709 14.8663C34.0616 14.7203 34.3819 14.5063 34.6517 14.2364C34.9216 13.9666 35.1356 13.6463 35.2816 13.2937C35.4277 12.9412 35.5028 12.5633 35.5028 12.1817Z" fill="#FE7957"/>
  <path d="M23.0905 24.4004C25.6948 22.2437 29.3256 20.4755 32.7937 21.1876C39.2101 22.5064 41.2853 30.4228 42.1177 36.1733C43.2719 44.1563 36.0657 47.9777 29.5198 49.2669C24.2866 50.2965 18.9448 50.2416 13.4946 49.1023C7.47773 47.8427 -0.642165 44.1489 0.0403498 36.6154C0.309163 33.6572 0.793151 30.831 1.49231 28.1367C2.46892 24.3708 4.21128 20.0149 7.63495 17.9803C11.2029 15.8606 15.1593 17.209 18.2851 19.6154C19.9276 20.8793 21.464 22.4663 22.8944 24.3763C22.9512 24.4528 23.0165 24.4608 23.0905 24.4004ZM7.50732 22.6062C6.54551 23.9244 5.75387 25.5996 5.13239 27.6317C4.38514 30.0757 3.81977 32.963 3.43628 36.2935C3.3327 37.19 3.3327 37.912 3.43628 38.4595C4.06146 41.7629 7.75517 43.7698 10.6406 44.8C12.8725 45.5966 15.2906 46.1336 17.8949 46.411C22.5264 46.9049 27.4057 46.633 31.7764 45.194C34.7432 44.2174 38.3222 42.2605 38.8253 38.809C38.919 38.1691 38.9092 37.4687 38.7957 36.7079C38.1743 32.561 36.3727 23.3553 30.1579 24.4966C28.214 24.8536 26.3939 25.9541 24.9161 27.2581C24.8631 27.3037 24.8544 27.3573 24.8902 27.419C26.0505 29.4117 26.8915 31.4241 27.4131 33.4562C27.799 34.963 27.9008 36.3435 27.7183 37.5975C27.3021 40.4478 25.3082 42.0385 22.5338 42.0866C16.9479 42.1809 14.9244 38.1469 16.6741 33.2435C17.4522 31.0609 18.713 28.969 20.4566 26.9677C20.5158 26.8999 20.5195 26.829 20.4677 26.755C17.9041 23.1278 11.6653 16.9057 7.50732 22.6062ZM24.437 35.9699C24.2391 33.9205 23.4567 31.9524 22.4727 29.9641C22.4673 29.9534 22.4593 29.9442 22.4494 29.9374C22.4395 29.9306 22.4281 29.9263 22.4161 29.925C22.4042 29.9237 22.3921 29.9254 22.381 29.93C22.3699 29.9346 22.3601 29.9418 22.3525 29.9511C20.9751 31.6799 20.0485 33.4513 19.5725 35.2651C19.2876 36.3509 19.2174 37.8861 20.4474 38.4003C21.1663 38.7011 21.998 38.7967 22.9425 38.687C24.3667 38.5205 24.5462 37.0963 24.437 35.9699Z" fill="#FE7957"/>
</svg>