<?xml version="1.0" encoding="utf-8"?>
<svg xmlns="http://www.w3.org/2000/svg" fill="none" height="50" viewBox="0 0 50 50" width="50">
  <path d="M24.9593 10.9137C27.7249 7.06624 31.1801 3.41386 35.2204 1.32548C38.9012 -0.57707 42.9818 -0.65987 45.962 2.59139C47.2788 4.02842 48.1316 5.77641 48.7918 7.65504C49.8274 10.6027 50.1973 13.5583 49.9014 16.5219C49.4117 21.4513 47.4145 26.3328 44.8469 30.6199C41.1374 36.817 36.5439 42.2388 31.0664 46.8854C30.1812 47.6361 29.1945 48.3513 28.1064 49.0308C27.3618 49.4982 26.5805 49.9159 25.68 49.9839C24.8352 50.0477 24.1126 49.9214 23.5122 49.6049C21.7088 48.6518 19.9439 47.4405 18.2176 45.9709C12.91 41.4519 8.4993 36.2356 4.98539 30.3218C2.75344 26.5627 1.01483 22.4081 0.290408 18.062C-0.350262 14.2152 0.0691062 10.4426 1.54852 6.74424C2.17818 5.17166 2.94295 3.88245 3.84282 2.87659C7.04862 -0.705869 11.4098 -0.347072 15.2777 1.85539C19.0062 3.98058 22.2156 7.35144 24.7979 10.9155C24.8075 10.9281 24.82 10.9383 24.8342 10.9453C24.8484 10.9523 24.8641 10.9559 24.8798 10.9557C24.8955 10.9555 24.9109 10.9516 24.9247 10.9443C24.9385 10.937 24.9504 10.9265 24.9593 10.9137ZM22.9217 31.4829C18.7622 30.3513 18.4009 25.9169 19.3161 22.3897C20.0326 19.6284 21.1923 16.9243 22.7952 14.2771C22.8335 14.2128 22.8529 14.1389 22.8509 14.0643C22.849 13.9896 22.8258 13.9173 22.7842 13.8558C21.4013 11.7999 19.8223 9.90227 18.047 8.16287C14.821 5.00361 8.42777 0.342924 5.23115 6.71848C3.51087 10.1507 2.96129 13.7564 3.5824 17.5358C3.89784 19.4555 4.43642 21.358 5.19813 23.2434C7.48511 28.9032 11.1622 34.0957 15.3602 38.6239C17.7016 41.1508 20.0809 43.2987 22.4981 45.0675C23.3148 45.6637 24.1878 46.1782 25.117 46.6113C25.2784 46.6867 25.4563 46.6793 25.6122 46.6002C27.4095 45.6821 29.1297 44.2266 30.5951 42.8816C35.0419 38.803 38.8302 34.1594 41.9602 28.9511C44.515 24.6988 46.569 19.6775 46.6607 14.739C46.7029 12.4703 46.2279 10.2917 45.4411 8.18679C44.5645 5.84265 42.9891 3.36602 40.295 3.33658C38.3601 3.3145 36.2621 4.40562 34.6848 5.56113C31.6771 7.76175 29.0637 10.7425 26.9326 13.9257C26.9118 13.9578 26.9004 13.995 26.8997 14.0331C26.8991 14.0712 26.9092 14.1086 26.929 14.141C28.6841 16.9819 30.1824 20.2571 30.7766 23.5323C31.4167 27.0595 30.5364 30.7837 26.5273 31.5859C25.2863 31.8337 24.0844 31.7993 22.9217 31.4829ZM25.3334 18.1356C25.2123 17.9099 25.0931 17.6805 24.9758 17.4474C24.9281 17.3554 24.8804 17.3548 24.8327 17.4456C23.7421 19.4696 22.9608 21.4838 22.4889 23.4881C22.2065 24.6915 21.9864 26.5591 22.742 27.6005C23.3417 28.4267 24.6585 28.469 25.5956 28.3641C26.7327 28.2365 27.3862 27.6398 27.5562 26.5738C27.709 25.617 27.643 24.5688 27.3581 23.4293C26.8972 21.5782 26.2223 19.8137 25.3334 18.1356Z" fill="#520F33"/>
</svg>