<?xml version="1.0" encoding="utf-8"?>
<svg xmlns="http://www.w3.org/2000/svg" fill="none" height="50" viewBox="0 0 53 50" width="53">
  <path d="M11.5223 31.1054C8.31399 29.9666 5.52547 28.2693 3.15677 26.0134C2.14899 25.0538 1.3448 23.9992 0.74422 22.8496C0.160452 21.733 -0.35485 19.9185 0.319006 18.7695C0.971241 17.6565 2.42706 17.1497 3.66126 16.8935C5.56271 16.5003 7.95724 16.2652 10.8449 16.1883C12.846 16.1354 14.9601 16.1221 17.187 16.1486C17.2367 16.1491 17.2854 16.1352 17.3271 16.1086C17.3687 16.082 17.4015 16.0438 17.4213 15.9989C17.8705 14.9936 18.2513 14.0189 18.5636 13.075C19.39 10.5774 20.2164 8.27877 21.0428 6.17918C21.9545 3.86315 23.7544 -0.126777 26.7075 0.00309358C28.6642 0.0896743 29.884 1.94214 30.6137 3.53126C31.1302 4.6544 31.559 5.77634 31.9001 6.89708C32.5356 8.98584 33.183 11.0758 33.8424 13.167C34.1331 14.0905 34.5277 15.0267 35.0262 15.9754C35.0592 16.0384 35.1089 16.091 35.1696 16.1273C35.2304 16.1636 35.2999 16.1822 35.3703 16.1811C39.0615 16.1366 42.6314 16.1997 46.0799 16.3705C47.3328 16.433 48.4793 16.5617 49.5195 16.7565C50.1934 16.8827 50.9681 17.0956 51.5447 17.4689C53.4653 18.7117 53.1735 20.8799 52.0564 22.5952C51.5555 23.3649 51.0011 24.0593 50.3933 24.6786C47.8997 27.2123 44.9737 29.3101 41.6152 30.9719C41.5685 30.9946 41.5314 31.0332 41.5106 31.0808C41.4898 31.1285 41.4866 31.1819 41.5017 31.2317C42.4374 34.3991 43.2062 37.5839 43.8079 40.7862C44.1947 42.8413 44.3052 44.6391 44.1395 46.1795C43.9052 48.362 42.5557 50.1117 40.2116 49.9944C37.3919 49.8537 34.8154 48.5117 32.5182 46.7982C30.4197 45.2337 28.4642 43.3554 26.6516 41.1632C26.6354 41.1435 26.615 41.1277 26.592 41.1169C26.5689 41.106 26.5438 41.1003 26.5183 41.1003C26.4928 41.1003 26.4677 41.106 26.4446 41.1169C26.4216 41.1277 26.4012 41.1435 26.385 41.1632C24.2853 43.6764 21.9971 45.7598 19.5203 47.4132C17.4231 48.813 15.0375 49.8988 12.5763 49.989C11.3872 50.0323 10.2269 49.392 9.57462 48.3873C8.13682 46.1705 8.63951 42.5972 9.11697 40.1892C9.70434 37.2274 10.5325 34.2542 11.6016 31.2696C11.6304 31.189 11.604 31.1343 11.5223 31.1054ZM37.9937 30.7898C37.7468 29.9221 37.9036 28.9048 38.8621 28.5513C41.8801 27.4384 44.671 25.4957 47.0907 23.3294C48.137 22.3926 48.9561 21.4228 49.5483 20.4199C49.648 20.2504 49.6024 20.1409 49.4114 20.0916C48.1556 19.7651 46.7034 19.6641 45.4007 19.61C41.9798 19.4681 38.3438 19.4176 34.4929 19.4585C33.0046 19.4747 31.9362 17.2922 31.4605 16.1288C29.9543 12.4509 29.2498 8.48981 27.6372 4.88408C27.3753 4.29966 27.0486 3.7922 26.657 3.3617C26.591 3.28955 26.5201 3.28474 26.4444 3.34727C26.1441 3.5998 25.8859 3.89682 25.6697 4.23833C24.6265 5.88156 23.8625 7.82241 23.2301 9.62979C22.4926 11.7378 21.7935 13.7267 21.1329 15.5966C20.8134 16.5045 20.4188 17.3734 19.9491 18.2031C19.5329 18.9372 18.9455 19.4495 18.0933 19.4369C14.1132 19.3755 10.2106 19.3683 6.38371 19.7651C5.41196 19.8662 4.46724 20.0471 3.54955 20.3081C3.35736 20.3634 3.29731 20.4848 3.36938 20.6724C3.78258 21.7547 4.45944 22.7395 5.39995 23.627C7.9188 26.0056 10.8352 27.6163 14.1493 28.4593C15.2249 28.7317 15.6159 29.7616 15.2537 30.7519C13.8682 34.5217 12.6484 38.5171 12.0791 42.3393C11.8953 43.5676 11.7277 45.4002 12.2808 46.5619C12.3181 46.64 12.3793 46.6815 12.4646 46.6863C14.2051 46.7837 16.5114 45.5319 18.0627 44.4461C20.3929 42.813 22.5022 40.8085 24.3904 38.4323C24.4213 38.393 24.4389 38.3449 24.4405 38.2949C24.4421 38.2449 24.4277 38.1957 24.3994 38.1545C22.6265 35.5445 20.9149 32.2526 20.8248 29.1628C20.7473 26.5401 22.1563 24.565 24.6571 24.0058C29.0119 23.0318 32.9776 25.2089 32.2227 30.1368C31.7812 33.0246 30.3164 35.7249 28.6138 38.2573C28.5861 38.2994 28.5879 38.3403 28.6192 38.38C30.7704 41.1614 33.5091 43.7985 36.6135 45.5464C37.8639 46.251 39.1288 46.6473 40.408 46.735C40.4744 46.7395 40.5404 46.7218 40.5955 46.6845C40.6507 46.6473 40.6918 46.5927 40.7125 46.5294C40.8723 46.0352 40.951 45.5325 40.9486 45.0215C40.9395 42.4673 40.3306 39.7491 39.7144 37.2671C39.163 35.04 38.5895 32.8809 37.9937 30.7898ZM26.6174 35.3244C27.6228 33.6559 28.4678 32.0019 28.8966 30.1801C29.0732 29.4261 29.2101 28.1653 28.5687 27.5989C27.8012 26.9225 26.1183 27.0073 25.2535 27.2327C22.3545 27.9939 25.5922 33.9481 26.4895 35.328C26.4966 35.3386 26.5063 35.3473 26.5177 35.3531C26.529 35.359 26.5417 35.3619 26.5544 35.3615C26.5672 35.3612 26.5797 35.3576 26.5907 35.3511C26.6017 35.3446 26.6109 35.3354 26.6174 35.3244Z" fill="#8CEDBD"/>
</svg>